<svg xmlns="http://www.w3.org/2000/svg" xmlns:xlink="http://www.w3.org/1999/xlink" contentStyleType="text/css" data-diagram-type="CLASS" height="386px" preserveAspectRatio="none" style="width:1020px;height:386px;background:#FFFFFF;" version="1.1" viewBox="0 0 1020 386" width="1020px" zoomAndPan="magnify"><defs><filter height="1" id="bjn5xqsg9c11n0" width="1" x="0" y="0"><feFlood flood-color="#DFA702" result="flood"/><feComposite in="SourceGraphic" in2="flood" operator="over"/></filter></defs><g><!--class v1--><g class="entity" data-entity="v1" data-source-line="122" data-uid="ent0002" id="entity_v1"><rect fill="#1E90FF" height="26.2969" rx="5" ry="5" style="stroke:#181818;stroke-width:0.5;" width="120.4951" x="144.87" y="110.3"/><text fill="#FFFFFF" font-family="Helvetica" font-size="14" font-weight="bold" lengthAdjust="spacing" textLength="114.4951" x="147.87" y="128.2951">iof:GainOfRole</text></g><!--class v2--><g class="entity" data-entity="v2" data-source-line="122" data-uid="ent0003" id="entity_v2"><rect fill="#1E90FF" height="26.2969" rx="5" ry="5" style="stroke:#181818;stroke-width:0.5;" width="119.9961" x="697.12" y="110.3"/><text fill="#FFFFFF" font-family="Helvetica" font-size="14" font-weight="bold" lengthAdjust="spacing" textLength="113.9961" x="700.12" y="128.2951">iof:LossOfRole</text></g><!--class v3--><g class="entity" data-entity="v3" data-source-line="122" data-uid="ent0004" id="entity_v3"><rect fill="#DFA702" height="26.2969" rx="5" ry="5" style="stroke:#181818;stroke-width:0.5;" width="72.0215" x="451.11" y="110.3"/><text fill="#FFFFFF" font-family="Helvetica" font-size="14" font-weight="bold" lengthAdjust="spacing" textLength="66.0215" x="454.11" y="128.2951">bfo:Role</text></g><!--class v4--><g class="entity" data-entity="v4" data-source-line="122" data-uid="ent0005" id="entity_v4"><rect fill="#DFA702" height="26.2969" rx="5" ry="5" style="stroke:#181818;stroke-width:0.5;" width="149.6846" x="414.28" y="7"/><text fill="#FFFFFF" font-family="Helvetica" font-size="14" font-weight="bold" lengthAdjust="spacing" textLength="143.6846" x="417.28" y="24.9951">bfo:MaterialEntity</text></g><g class="entity" data-entity="v5" data-source-line="150" data-uid="ent0014" id="entity_v5"><rect fill="#76608A" height="44.5938" rx="5" ry="5" style="stroke:#FFFFFF;stroke-width:0.5;" width="211.0967" x="45.57" y="213.59"/><text fill="#FFFFFF" font-family="Helvetica" font-size="14" lengthAdjust="spacing" text-decoration="underline" textLength="92.0732" x="105.0817" y="228.5851">ns1:interval1</text><line style="stroke:#FFFFFF;stroke-width:0.5;" x1="46.57" x2="255.6667" y1="233.8869" y2="233.8869"/><text fill="#FFFFFF" filter="url(#bjn5xqsg9c11n0)" font-family="Helvetica" font-size="14" lengthAdjust="spacing" textLength="199.0967" x="51.57" y="250.882">type = bfo:TemporalInterval</text></g><g class="entity" data-entity="v6" data-source-line="150" data-uid="ent0015" id="entity_v6"><rect fill="#76608A" height="44.5938" rx="5" ry="5" style="stroke:#FFFFFF;stroke-width:0.5;" width="211.0967" x="381.57" y="335.19"/><text fill="#FFFFFF" font-family="Helvetica" font-size="14" lengthAdjust="spacing" text-decoration="underline" textLength="92.0732" x="441.0817" y="350.1851">ns1:interval2</text><line style="stroke:#FFFFFF;stroke-width:0.5;" x1="382.57" x2="591.6667" y1="355.4869" y2="355.4869"/><text fill="#FFFFFF" filter="url(#bjn5xqsg9c11n0)" font-family="Helvetica" font-size="14" lengthAdjust="spacing" textLength="199.0967" x="387.57" y="372.482">type = bfo:TemporalInterval</text></g><g class="entity" data-entity="v7" data-source-line="150" data-uid="ent0016" id="entity_v7"><rect fill="#76608A" height="44.5938" rx="5" ry="5" style="stroke:#FFFFFF;stroke-width:0.5;" width="211.0967" x="663.57" y="213.59"/><text fill="#FFFFFF" font-family="Helvetica" font-size="14" lengthAdjust="spacing" text-decoration="underline" textLength="92.0732" x="723.0817" y="228.5851">ns1:interval3</text><line style="stroke:#FFFFFF;stroke-width:0.5;" x1="664.57" x2="873.6667" y1="233.8869" y2="233.8869"/><text fill="#FFFFFF" filter="url(#bjn5xqsg9c11n0)" font-family="Helvetica" font-size="14" lengthAdjust="spacing" textLength="199.0967" x="669.57" y="250.882">type = bfo:TemporalInterval</text></g><!--link v1 to v3--><g class="link" data-entity-1="v1" data-entity-2="v3" data-source-line="632" data-uid="lnk6" id="link_v1_v3"><path codeLine="632" d="M265.62,123.44 C321.93,123.44 398.02,123.44 444.83,123.44" fill="none" id="v1-to-v3" style="stroke:#181818;stroke-width:1;"/><polygon fill="#181818" points="450.83,123.44,441.83,119.44,445.83,123.44,441.83,127.44,450.83,123.44" style="stroke:#181818;stroke-width:1;"/><text fill="#000000" font-family="sans-serif" font-size="13" lengthAdjust="spacing" textLength="148.7256" x="284.24" y="116.5069">bfo:hasOutput &#171;some&#187;</text></g><!--reverse link v3 to v2--><g class="link" data-entity-1="v3" data-entity-2="v2" data-source-line="632" data-uid="lnk8" id="link_v3_v2"><path codeLine="632" d="M529.53,123.44 C573.94,123.44 643.64,123.44 696.8,123.44" fill="none" id="v3-backto-v2" style="stroke:#181818;stroke-width:1;"/><polygon fill="#181818" points="523.53,123.44,532.53,127.44,528.53,123.44,532.53,119.44,523.53,123.44" style="stroke:#181818;stroke-width:1;"/><text fill="#000000" font-family="sans-serif" font-size="13" lengthAdjust="spacing" textLength="137.23" x="541.63" y="116.5069">bfo:hasInput &#171;some&#187;</text></g><!--reverse link v4 to v1--><g class="link" data-entity-1="v4" data-entity-2="v1" data-source-line="632" data-uid="lnk10" id="link_v4_v1"><path codeLine="632" d="M407.8837,26.8428 C343.8337,32.5528 263.89,43.19 236.12,63.3 C220.53,74.58 212.12,96.1 208.14,109.84" fill="none" id="v4-backto-v1" style="stroke:#181818;stroke-width:1;"/><polygon fill="#181818" points="413.86,26.31,404.5404,23.125,408.8798,26.754,405.2507,31.0934,413.86,26.31" style="stroke:#181818;stroke-width:1;"/><text fill="#000000" font-family="sans-serif" font-size="13" lengthAdjust="spacing" textLength="242.8359" x="237.12" y="76.3669">bfo:hasParticipantAtAllTimes &#171;some&#187;</text></g><!--reverse link v4 to v2--><g class="link" data-entity-1="v4" data-entity-2="v2" data-source-line="632" data-uid="lnk12" id="link_v4_v2"><path codeLine="632" d="M540.3712,35.426 C567.0112,43.176 595.4,52.08 625.12,63.3 C662.95,77.57 705.4,97.29 731.7,109.95" fill="none" id="v4-backto-v2" style="stroke:#181818;stroke-width:1;"/><polygon fill="#181818" points="534.61,33.75,542.1344,40.1048,539.411,35.1467,544.3691,32.4232,534.61,33.75" style="stroke:#181818;stroke-width:1;"/><text fill="#000000" font-family="sans-serif" font-size="13" lengthAdjust="spacing" textLength="242.8359" x="666.63" y="76.3669">bfo:hasParticipantAtAllTimes &#171;some&#187;</text></g><!--link v4 to v3--><g class="link" data-entity-1="v4" data-entity-2="v3" data-source-line="632" data-uid="lnk13" id="link_v4_v3"><path codeLine="632" d="M488.87,33.57 C488.49,53.01 487.8669,84.4211 487.4869,103.9211" fill="none" id="v4-to-v3" style="stroke:#181818;stroke-width:1;"/><polygon fill="#181818" points="487.37,109.92,491.5446,100.9996,487.4674,104.9209,483.5461,100.8438,487.37,109.92" style="stroke:#181818;stroke-width:1;"/><text fill="#000000" font-family="sans-serif" font-size="13" lengthAdjust="spacing" textLength="127.5244" x="489.24" y="76.3669">iof:hasRole &#171;some&#187;</text></g><!--link v1 to v5--><g class="link" data-entity-1="v1" data-entity-2="v5" data-source-line="632" data-uid="lnk17" id="link_v1_v5"><path codeLine="632" d="M199.13,136.69 C190.13,155.11 175.596,184.8401 164.416,207.7001" fill="none" id="v1-to-v5" style="stroke:#181818;stroke-width:1;"/><polygon fill="#181818" points="161.78,213.09,169.3273,206.7624,163.9767,208.5984,162.1407,203.2478,161.78,213.09" style="stroke:#181818;stroke-width:1;"/><text fill="#000000" font-family="sans-serif" font-size="13" lengthAdjust="spacing" textLength="189.103" x="183.96" y="179.6569">bfo:occupiesTemporalRegion</text></g><!--link v3 to v6--><g class="link" data-entity-1="v3" data-entity-2="v6" data-source-line="632" data-uid="lnk18" id="link_v3_v6"><path codeLine="632" d="M487.12,136.92 C487.12,174.57 487.12,281.4 487.12,328.97" fill="none" id="v3-to-v6" style="stroke:#181818;stroke-width:1;"/><polygon fill="#181818" points="487.12,334.97,491.12,325.97,487.12,329.97,483.12,325.97,487.12,334.97" style="stroke:#181818;stroke-width:1;"/><text fill="#000000" font-family="sans-serif" font-size="13" lengthAdjust="spacing" textLength="77.0986" x="488.12" y="240.4569">bfo:existsAt</text></g><!--link v2 to v7--><g class="link" data-entity-1="v2" data-entity-2="v7" data-source-line="632" data-uid="lnk19" id="link_v2_v7"><path codeLine="632" d="M758.45,136.69 C760.45,155.11 763.6229,184.265 766.1029,207.125" fill="none" id="v2-to-v7" style="stroke:#181818;stroke-width:1;"/><polygon fill="#181818" points="766.75,213.09,769.756,203.7111,766.2107,208.1192,761.8027,204.5739,766.75,213.09" style="stroke:#181818;stroke-width:1;"/><text fill="#000000" font-family="sans-serif" font-size="13" lengthAdjust="spacing" textLength="189.103" x="764.48" y="179.6569">bfo:occupiesTemporalRegion</text></g><!--link v5 to v6--><g class="link" data-entity-1="v5" data-entity-2="v6" data-source-line="632" data-uid="lnk20" id="link_v5_v6"><path codeLine="632" d="M55.18,258.63 C26.05,269.6 6,284.95 24.12,305.19 C47.52,331.32 245.8775,345.2892 375.1575,351.7792" fill="none" id="v5-to-v6" style="stroke:#181818;stroke-width:1;"/><polygon fill="#181818" points="381.15,352.08,372.3619,347.6338,376.1563,351.8293,371.9608,355.6237,381.15,352.08" style="stroke:#181818;stroke-width:1;"/><text fill="#000000" font-family="sans-serif" font-size="13" lengthAdjust="spacing" textLength="65.6919" x="25.12" y="301.2569">bfo:meets</text></g><!--link v5 to v6--><g class="link" data-entity-1="v5" data-entity-2="v6" data-source-line="632" data-uid="lnk21" id="link_v5_v6"><path codeLine="632" d="M135.36,258.51 C126.74,273.19 119.88,292.21 131.12,305.19 C163.01,342 282.2331,352.8084 375.1931,355.7784" fill="none" id="v5-to-v6-1" style="stroke:#181818;stroke-width:1;"/><polygon fill="#181818" points="381.19,355.97,372.3223,351.6846,376.1925,355.8103,372.0669,359.6806,381.19,355.97" style="stroke:#181818;stroke-width:1;"/><text fill="#000000" font-family="sans-serif" font-size="13" lengthAdjust="spacing" textLength="153.2261" x="132.12" y="301.2569">bfo:temporallyOverlaps</text></g><!--link v5 to v6--><g class="link" data-entity-1="v5" data-entity-2="v6" data-source-line="632" data-uid="lnk22" id="link_v5_v6"><path codeLine="632" d="M213.5,258.59 C237.62,267.33 265.33,277.78 290.12,288.19 C306.44,295.03 309.65,298.71 326.12,305.19 C353.69,316.03 378.8392,324.5328 406.1192,332.9928" fill="none" id="v5-to-v6-2" style="stroke:#181818;stroke-width:1;"/><polygon fill="#181818" points="411.85,334.77,404.4387,328.2837,407.0744,333.289,402.0691,335.9247,411.85,334.77" style="stroke:#181818;stroke-width:1;"/><text fill="#000000" font-family="sans-serif" font-size="13" lengthAdjust="spacing" textLength="133.8848" x="327.12" y="301.2569">bfo:temporallyStarts</text></g><!--link v7 to v6--><g class="link" data-entity-1="v7" data-entity-2="v6" data-source-line="632" data-uid="lnk23" id="link_v7_v6"><path codeLine="632" d="M874.9,249.06 C922.35,258.73 962.4,275.74 936.12,305.19 C913.66,330.36 724.6812,344.535 599.1612,351.345" fill="none" id="v7-to-v6" style="stroke:#181818;stroke-width:1;"/><polygon fill="#181818" points="593.17,351.67,602.3735,355.1766,598.1627,351.3991,601.9401,347.1883,593.17,351.67" style="stroke:#181818;stroke-width:1;"/><text fill="#000000" font-family="sans-serif" font-size="13" lengthAdjust="spacing" textLength="67.5327" x="945.42" y="301.2569">bfo:metBy</text></g><!--link v7 to v6--><g class="link" data-entity-1="v7" data-entity-2="v6" data-source-line="632" data-uid="lnk24" id="link_v7_v6"><path codeLine="632" d="M663.22,245.9 C622.99,253.02 578.2,265.69 542.12,288.19 C523.78,299.62 512.0564,314.3123 502.4064,329.6423" fill="none" id="v7-to-v6-1" style="stroke:#181818;stroke-width:1;"/><polygon fill="#181818" points="499.21,334.72,507.3897,329.2343,501.8736,330.4886,500.6194,324.9725,499.21,334.72" style="stroke:#181818;stroke-width:1;"/><text fill="#000000" font-family="sans-serif" font-size="13" lengthAdjust="spacing" textLength="187.5669" x="543.12" y="301.2569">bfo:temporallyOverlappedBy</text></g><!--link v7 to v6--><g class="link" data-entity-1="v7" data-entity-2="v6" data-source-line="632" data-uid="lnk25" id="link_v7_v6"><path codeLine="632" d="M763.76,258.63 C758.85,273.95 750.02,293.71 735.12,305.19 C712.65,322.49 655.7934,334.4886 599.0134,343.0186" fill="none" id="v7-to-v6-2" style="stroke:#181818;stroke-width:1;"/><polygon fill="#181818" points="593.08,343.91,602.5744,346.5286,598.0245,343.1672,601.3859,338.6173,593.08,343.91" style="stroke:#181818;stroke-width:1;"/><text fill="#000000" font-family="sans-serif" font-size="13" lengthAdjust="spacing" textLength="159.9736" x="751.12" y="301.2569">bfo:temporallyStartedBy</text></g><!--SRC=[fPB1Ri8m44Jl-OgK4v4G5d3BZLPLXTIA2lW1asnW9SUsx3MGlwzfGWCXG2EE6U-RcRNpWZ8HBeLmIwHjp9ZX- -46QUlMpe99b2IGD4nKpb1boidK5CoBIhjSC0EPPLlWgMKvHycasWkcZSfGW3q2G_HZGQ3U1BUsxuNumy_DiuKI49tBdyhQXhpEL7mbV742WroyIq8geY0uB5KE3UT1U1pTSZjtf1sLd-L1hpS8JNH6rS5_r4osGE9HrZStX0bgBcbAKo5Mc8CjJozBbtxkGOdkTfLVsyGnmtlM0VLUgGVLJAQumzHnqPTs5AD_TBFZObGEho3Nod0ng-Je9Z3k2ank0NVkMYM9qmZs12rWWqeEmaRpNbXkLzzARG47j6IdT0cDcr3Rq_mdVL8RLKujjve3a7rGe0MZAbSKynqOmVLJ7alolraNXycfFBqMtR6hyXhIvtn-5xXdyWC0]--></g></svg>