<svg xmlns="http://www.w3.org/2000/svg" xmlns:xlink="http://www.w3.org/1999/xlink" contentStyleType="text/css" data-diagram-type="CLASS" height="374px" preserveAspectRatio="none" style="width:1010px;height:374px;background:#FFFFFF;" version="1.1" viewBox="0 0 1010 374" width="1010px" zoomAndPan="magnify"><defs><filter height="1" id="b9lv99s0u6dtz0" width="1" x="0" y="0"><feFlood flood-color="#DFA702" result="flood"/><feComposite in="SourceGraphic" in2="flood" operator="over"/></filter><filter height="1" id="b9lv99s0u6dtz1" width="1" x="0" y="0"><feFlood flood-color="#1E90FF" result="flood"/><feComposite in="SourceGraphic" in2="flood" operator="over"/></filter></defs><g><!--class v1--><g class="entity" data-entity="v1" data-source-line="122" data-uid="ent0002" id="entity_v1"><rect fill="#1E90FF" height="26.2969" rx="5" ry="5" style="stroke:#181818;stroke-width:0.5;" width="120.4951" x="97.17" y="16.15"/><text fill="#FFFFFF" font-family="Helvetica" font-size="14" font-weight="bold" lengthAdjust="spacing" textLength="114.4951" x="100.17" y="34.1451">iof:GainOfRole</text></g><g class="entity" data-entity="v2" data-source-line="144" data-uid="ent0003" id="entity_v2"><rect fill="#76608A" height="20.2969" rx="5" ry="5" style="stroke:#FFFFFF;stroke-width:0.5;" width="241.4385" x="36.7" y="140.74"/><text fill="#FFFFFF" font-family="Helvetica" font-size="14" lengthAdjust="spacing" text-decoration="underline" textLength="227.4385" x="43.7" y="155.7351">ns1:assignment-of-safety-officer</text></g><g class="entity" data-entity="v3" data-source-line="144" data-uid="ent0005" id="entity_v3"><rect fill="#76608A" height="20.2969" rx="5" ry="5" style="stroke:#FFFFFF;stroke-width:0.5;" width="174.7744" x="70.03" y="250.19"/><text fill="#FFFFFF" font-family="Helvetica" font-size="14" lengthAdjust="spacing" text-decoration="underline" textLength="160.7744" x="77.03" y="265.1851">ns1:assigment-interval</text></g><!--class v4--><g class="entity" data-entity="v4" data-source-line="122" data-uid="ent0007" id="entity_v4"><rect fill="#1E90FF" height="26.2969" rx="5" ry="5" style="stroke:#181818;stroke-width:0.5;" width="119.9961" x="752.42" y="16.15"/><text fill="#FFFFFF" font-family="Helvetica" font-size="14" font-weight="bold" lengthAdjust="spacing" textLength="113.9961" x="755.42" y="34.1451">iof:LossOfRole</text></g><g class="entity" data-entity="v5" data-source-line="144" data-uid="ent0008" id="entity_v5"><rect fill="#76608A" height="20.2969" rx="5" ry="5" style="stroke:#FFFFFF;stroke-width:0.5;" width="241.6641" x="691.58" y="140.74"/><text fill="#FFFFFF" font-family="Helvetica" font-size="14" lengthAdjust="spacing" text-decoration="underline" textLength="227.6641" x="698.58" y="155.7351">ns1:termination-of-safety-officer</text></g><g class="entity" data-entity="v6" data-source-line="144" data-uid="ent0010" id="entity_v6"><rect fill="#76608A" height="20.2969" rx="5" ry="5" style="stroke:#FFFFFF;stroke-width:0.5;" width="183.873" x="720.48" y="250.19"/><text fill="#FFFFFF" font-family="Helvetica" font-size="14" lengthAdjust="spacing" text-decoration="underline" textLength="169.873" x="727.48" y="265.1851">ns1:termination-interval</text></g><g class="entity" data-entity="v7" data-source-line="150" data-uid="ent0012" id="entity_v7"><rect fill="#76608A" height="44.5938" rx="5" ry="5" style="stroke:#FFFFFF;stroke-width:0.5;" width="174.959" x="402.94" y="128.59"/><text fill="#FFFFFF" font-family="Helvetica" font-size="14" lengthAdjust="spacing" text-decoration="underline" textLength="160.959" x="409.94" y="143.5851">ns1:safety-officer-term</text><line style="stroke:#FFFFFF;stroke-width:0.5;" x1="403.94" x2="576.899" y1="148.8869" y2="148.8869"/><text fill="#FFFFFF" filter="url(#b9lv99s0u6dtz0)" font-family="Helvetica" font-size="14" lengthAdjust="spacing" textLength="109.7988" x="408.94" y="165.882">type = bfo:Role</text></g><g class="entity" data-entity="v8" data-source-line="150" data-uid="ent0016" id="entity_v8"><rect fill="#76608A" height="44.5938" rx="5" ry="5" style="stroke:#FFFFFF;stroke-width:0.5;" width="133.5498" x="423.64" y="7"/><text fill="#FFFFFF" font-family="Helvetica" font-size="14" lengthAdjust="spacing" text-decoration="underline" textLength="86.1602" x="447.3348" y="21.9951">ns1:john-lee</text><line style="stroke:#FFFFFF;stroke-width:0.5;" x1="424.64" x2="556.1898" y1="27.2969" y2="27.2969"/><text fill="#FFFFFF" filter="url(#b9lv99s0u6dtz1)" font-family="Helvetica" font-size="14" lengthAdjust="spacing" textLength="121.5498" x="429.64" y="44.292">type = iof:Person</text></g><g class="entity" data-entity="v9" data-source-line="144" data-uid="ent0020" id="entity_v9"><rect fill="#76608A" height="20.2969" rx="5" ry="5" style="stroke:#FFFFFF;stroke-width:0.5;" width="132.8291" x="7" y="347.48"/><text fill="#FFFFFF" font-family="Helvetica" font-size="14" lengthAdjust="spacing" text-decoration="underline" textLength="118.8291" x="14" y="362.4751">ns1:may_1_2024</text></g><g class="entity" data-entity="v10" data-source-line="144" data-uid="ent0021" id="entity_v10"><rect fill="#76608A" height="20.2969" rx="5" ry="5" style="stroke:#FFFFFF;stroke-width:0.5;" width="132.8291" x="175" y="347.48"/><text fill="#FFFFFF" font-family="Helvetica" font-size="14" lengthAdjust="spacing" text-decoration="underline" textLength="118.8291" x="182" y="362.4751">ns1:may_6_2024</text></g><g class="entity" data-entity="v11" data-source-line="144" data-uid="ent0024" id="entity_v11"><rect fill="#76608A" height="20.2969" rx="5" ry="5" style="stroke:#FFFFFF;stroke-width:0.5;" width="155.7773" x="644.53" y="347.48"/><text fill="#FFFFFF" font-family="Helvetica" font-size="14" lengthAdjust="spacing" text-decoration="underline" textLength="141.7773" x="651.53" y="362.4751">ns1:march_31_2025</text></g><g class="entity" data-entity="v12" data-source-line="144" data-uid="ent0025" id="entity_v12"><rect fill="#76608A" height="20.2969" rx="5" ry="5" style="stroke:#FFFFFF;stroke-width:0.5;" width="133.3281" x="835.75" y="347.48"/><text fill="#FFFFFF" font-family="Helvetica" font-size="14" lengthAdjust="spacing" text-decoration="underline" textLength="119.3281" x="842.75" y="362.4751">ns1:april_4_2025</text></g><!--reverse link v1 to v2--><g class="link" data-entity-1="v1" data-entity-2="v2" data-source-line="165" data-uid="lnk4" id="link_v1_v2"><path codeLine="165" d="M157.41,48.64 C157.41,72.64 157.41,119.07 157.41,140.49" fill="none" id="v1-backto-v2" style="stroke:#181818;stroke-width:1;stroke-dasharray:7.0,7.0;"/><polygon fill="#181818" points="157.41,42.64,153.41,51.64,157.41,47.64,161.41,51.64,157.41,42.64" style="stroke:#181818;stroke-width:1;"/></g><!--link v2 to v3--><g class="link" data-entity-1="v2" data-entity-2="v3" data-source-line="195" data-uid="lnk6" id="link_v2_v3"><path codeLine="195" d="M157.41,161.42 C157.41,181.87 157.41,223.69 157.41,243.97" fill="none" id="v2-to-v3" style="stroke:#181818;stroke-width:1;"/><polygon fill="#181818" points="157.41,249.97,161.41,240.97,157.41,244.97,153.41,240.97,157.41,249.97" style="stroke:#181818;stroke-width:1;"/><text fill="#000000" font-family="sans-serif" font-size="13" lengthAdjust="spacing" textLength="189.103" x="158.41" y="216.2569">bfo:occupiesTemporalRegion</text></g><!--reverse link v4 to v5--><g class="link" data-entity-1="v4" data-entity-2="v5" data-source-line="165" data-uid="lnk9" id="link_v4_v5"><path codeLine="165" d="M812.41,48.64 C812.41,72.64 812.41,119.07 812.41,140.49" fill="none" id="v4-backto-v5" style="stroke:#181818;stroke-width:1;stroke-dasharray:7.0,7.0;"/><polygon fill="#181818" points="812.41,42.64,808.41,51.64,812.41,47.64,816.41,51.64,812.41,42.64" style="stroke:#181818;stroke-width:1;"/></g><!--link v5 to v6--><g class="link" data-entity-1="v5" data-entity-2="v6" data-source-line="195" data-uid="lnk11" id="link_v5_v6"><path codeLine="195" d="M812.41,161.42 C812.41,181.87 812.41,223.69 812.41,243.97" fill="none" id="v5-to-v6" style="stroke:#181818;stroke-width:1;"/><polygon fill="#181818" points="812.41,249.97,816.41,240.97,812.41,244.97,808.41,240.97,812.41,249.97" style="stroke:#181818;stroke-width:1;"/><text fill="#000000" font-family="sans-serif" font-size="13" lengthAdjust="spacing" textLength="189.103" x="813.41" y="216.2569">bfo:occupiesTemporalRegion</text></g><!--link v2 to v7--><g class="link" data-entity-1="v2" data-entity-2="v7" data-source-line="195" data-uid="lnk13" id="link_v2_v7"><path codeLine="195" d="M278.58,150.89 C319.58,150.89 358.56,150.89 396.48,150.89" fill="none" id="v2-to-v7" style="stroke:#181818;stroke-width:1;"/><polygon fill="#181818" points="402.48,150.89,393.48,146.89,397.48,150.89,393.48,154.89,402.48,150.89" style="stroke:#181818;stroke-width:1;"/><text fill="#000000" font-family="sans-serif" font-size="13" lengthAdjust="spacing" textLength="88.6577" x="296.53" y="143.9569">iof:hasOutput</text></g><!--reverse link v7 to v5--><g class="link" data-entity-1="v7" data-entity-2="v5" data-source-line="195" data-uid="lnk15" id="link_v7_v5"><path codeLine="195" d="M583.98,150.89 C618.9,150.89 653.68,150.89 691.35,150.89" fill="none" id="v7-backto-v5" style="stroke:#181818;stroke-width:1;"/><polygon fill="#181818" points="577.98,150.89,586.98,154.89,582.98,150.89,586.98,146.89,577.98,150.89" style="stroke:#181818;stroke-width:1;"/><text fill="#000000" font-family="sans-serif" font-size="13" lengthAdjust="spacing" textLength="77.1621" x="596.24" y="143.9569">iof:hasInput</text></g><!--link v8 to v7--><g class="link" data-entity-1="v8" data-entity-2="v7" data-source-line="195" data-uid="lnk17" id="link_v8_v7"><path codeLine="195" d="M488.86,52 C488.28,61.13 487.7,71.87 487.41,81.59 C486.96,97.25 487.3735,108.9331 488.2635,122.3731" fill="none" id="v8-to-v7" style="stroke:#181818;stroke-width:1;"/><polygon fill="#181818" points="488.66,128.36,492.0566,119.1154,488.3296,123.3709,484.0741,119.644,488.66,128.36" style="stroke:#181818;stroke-width:1;"/><text fill="#000000" font-family="sans-serif" font-size="13" lengthAdjust="spacing" textLength="72.0967" x="488.41" y="94.6569">iof:hasRole</text></g><!--link v8 to v2--><g class="link" data-entity-1="v8" data-entity-2="v2" data-source-line="195" data-uid="lnk18" id="link_v8_v2"><path codeLine="195" d="M423.57,44.18 C385.18,53.04 336.4,65.83 294.41,81.59 C249.13,98.6 204.2003,122.9647 179.0003,137.3547" fill="none" id="v8-to-v2" style="stroke:#181818;stroke-width:1;"/><polygon fill="#181818" points="173.79,140.33,183.589,139.3407,178.132,137.8506,179.622,132.3935,173.79,140.33" style="stroke:#181818;stroke-width:1;"/><text fill="#000000" font-family="sans-serif" font-size="13" lengthAdjust="spacing" textLength="183.4473" x="295.41" y="94.6569">bfo:participatesInAtAllTimes</text></g><!--link v8 to v5--><g class="link" data-entity-1="v8" data-entity-2="v5" data-source-line="195" data-uid="lnk19" id="link_v8_v5"><path codeLine="195" d="M526.07,52 C551.4,66.71 586.62,85.75 619.41,98.59 C667.35,117.37 718.7583,130.3394 758.3983,138.9994" fill="none" id="v8-to-v5" style="stroke:#181818;stroke-width:1;"/><polygon fill="#181818" points="764.26,140.28,756.3211,134.4513,759.3752,139.2128,754.6137,142.2669,764.26,140.28" style="stroke:#181818;stroke-width:1;"/><text fill="#000000" font-family="sans-serif" font-size="13" lengthAdjust="spacing" textLength="183.4473" x="620.41" y="94.6569">bfo:participatesInAtAllTimes</text></g><!--link v3 to v9--><g class="link" data-entity-1="v3" data-entity-2="v9" data-source-line="195" data-uid="lnk22" id="link_v3_v9"><path codeLine="195" d="M113.13,270.84 C97.19,276.64 80.82,285.86 71.41,300.48 C62.34,314.59 64.6178,329.3485 68.2378,341.2785" fill="none" id="v3-to-v9" style="stroke:#181818;stroke-width:1;"/><polygon fill="#181818" points="69.98,347.02,71.1944,337.2463,68.5282,342.2354,63.5391,339.5692,69.98,347.02" style="stroke:#181818;stroke-width:1;"/><text fill="#000000" font-family="sans-serif" font-size="13" lengthAdjust="spacing" textLength="125.144" x="72.41" y="313.5469">bfo:hasStartInstant</text></g><!--link v3 to v10--><g class="link" data-entity-1="v3" data-entity-2="v10" data-source-line="195" data-uid="lnk23" id="link_v3_v10"><path codeLine="195" d="M170,270.88 C179.47,278.38 192.46,289.38 202.41,300.48 C216.04,315.68 225.8476,330.6704 232.8676,342.2404" fill="none" id="v3-to-v10" style="stroke:#181818;stroke-width:1;"/><polygon fill="#181818" points="235.98,347.37,234.7312,337.6006,233.3864,343.0953,227.8917,341.7505,235.98,347.37" style="stroke:#181818;stroke-width:1;"/><text fill="#000000" font-family="sans-serif" font-size="13" lengthAdjust="spacing" textLength="118.0918" x="216.39" y="313.5469">bfo:hasEndInstant</text></g><!--link v6 to v11--><g class="link" data-entity-1="v6" data-entity-2="v11" data-source-line="195" data-uid="lnk26" id="link_v6_v11"><path codeLine="195" d="M776.08,270.96 C760.35,276.94 743.12,286.28 732.41,300.48 C722.04,314.24 720.9058,329.245 721.3958,341.275" fill="none" id="v6-to-v11" style="stroke:#181818;stroke-width:1;"/><polygon fill="#181818" points="721.64,347.27,725.2704,338.1147,721.4365,342.2741,717.277,338.4402,721.64,347.27" style="stroke:#181818;stroke-width:1;"/><text fill="#000000" font-family="sans-serif" font-size="13" lengthAdjust="spacing" textLength="125.144" x="733.41" y="313.5469">bfo:hasStartInstant</text></g><!--link v6 to v12--><g class="link" data-entity-1="v6" data-entity-2="v12" data-source-line="195" data-uid="lnk27" id="link_v6_v12"><path codeLine="195" d="M827.24,270.89 C837.98,278.22 852.48,289.01 863.41,300.48 C877.5,315.26 887.2272,330.3529 894.0872,342.0629" fill="none" id="v6-to-v12" style="stroke:#181818;stroke-width:1;"/><polygon fill="#181818" points="897.12,347.24,896.0221,337.4525,894.5926,342.9258,889.1194,341.4963,897.12,347.24" style="stroke:#181818;stroke-width:1;"/><text fill="#000000" font-family="sans-serif" font-size="13" lengthAdjust="spacing" textLength="118.0918" x="877.67" y="313.5469">bfo:hasEndInstant</text></g><!--SRC=[dPHFJ-Cm4CNl_HJP4qHgwuK53hqXj5fLMgahu5wPUDmCSZoM_u3oxTSXGIIjam2to7xptipFTdwWBbGGa9NU6xTXpFBNzG5z6Pw20rkGzg3zkg2A8KaAMjYQnKKoeLBCWdIi12uSgpXgfkbLCMD9eWBN5AmnoXOBkbFSkVEuiFaJTJjvJmho1Msrm1SKWQjpxIusKOC7NSN05ScLun9y7Rya5c3pXQyDxEIiS9aTnwHptgenZcTVk8gYsBO1w-jF13n9sb1H18FW7g4oPBcwXmEINcPf_sKcyW66l-JS68POKg7cFlhDS9XKjY3wGPD9OoXcCkPOf29Q6cTPnwEnI9COXgqQhpQnbPzbFHOpsg-SRyEjv6uNl0c-7IFf7W_ZAwWwswsUTbLzDatDFx2Ez2cTPohrIW6qpk-g0PIqPDZrK1CRR81Dz2V63HhSXbkF1Hhk8Ovwws-LUiGANEzfZ88N-VUTP-2BnFMlUBs_s5_-lBpAatittLxYxXozxgQzIEx1nnQtsdckknF-Y3YTRiBejnOdDZSVDebkRL7kVxqbNIT-hCQYsbzrk-ENzbC3zP9EPvfqEvwgtrPZzHy0]--></g></svg>